<?xml version="1.0" encoding="UTF-8" standalone="no"?>
<!-- Created with Inkscape (http://www.inkscape.org/) -->

<svg
   xmlns:dc="http://purl.org/dc/elements/1.1/"
   xmlns:cc="http://creativecommons.org/ns#"
   xmlns:rdf="http://www.w3.org/1999/02/22-rdf-syntax-ns#"
   xmlns:svg="http://www.w3.org/2000/svg"
   xmlns="http://www.w3.org/2000/svg"
   xmlns:xlink="http://www.w3.org/1999/xlink"
   xmlns:sodipodi="http://sodipodi.sourceforge.net/DTD/sodipodi-0.dtd"
   xmlns:inkscape="http://www.inkscape.org/namespaces/inkscape"
   width="3194.7993"
   height="718.9007"
   id="svg11091"
   sodipodi:version="0.32"
   inkscape:version="0.91 r13725"
   version="1.0"
   sodipodi:docname="logo-aztec.svg"
   inkscape:output_extension="org.inkscape.output.svg.inkscape"
   inkscape:export-filename="M:\logos\png-raster\logo-aztec.png"
   inkscape:export-xdpi="115.39"
   inkscape:export-ydpi="115.39">
  <defs
     id="defs3">
    <linearGradient
       inkscape:collect="always"
       id="linearGradient3352">
      <stop
         style="stop-color:#9a0000;stop-opacity:1;"
         offset="0"
         id="stop3354" />
      <stop
         style="stop-color:#9a0000;stop-opacity:0;"
         offset="1"
         id="stop3356" />
    </linearGradient>
    <linearGradient
       inkscape:collect="always"
       xlink:href="#linearGradient3352"
       id="linearGradient3698"
       gradientUnits="userSpaceOnUse"
       gradientTransform="translate(137.58707,61.510341)"
       x1="412.89294"
       y1="274.89886"
       x2="325.75009"
       y2="333.16147" />
  </defs>
  <sodipodi:namedview
     inkscape:document-units="in"
     id="base"
     pagecolor="#ffffff"
     bordercolor="#666666"
     borderopacity="1.0"
     inkscape:pageopacity="0.0"
     inkscape:pageshadow="2"
     inkscape:zoom="0.32710254"
     inkscape:cx="701.37247"
     inkscape:cy="412.55729"
     inkscape:current-layer="g3700"
     width="36in"
     height="12in"
     inkscape:window-width="2560"
     inkscape:window-height="1377"
     inkscape:window-x="1912"
     inkscape:window-y="-8"
     units="in"
     showgrid="false"
     fit-margin-top="0"
     fit-margin-left="0"
     fit-margin-right="0"
     fit-margin-bottom="0"
     inkscape:window-maximized="1" />
  <metadata
     id="metadata4">
    <rdf:RDF>
      <cc:Work
         rdf:about="">
        <dc:format>image/svg+xml</dc:format>
        <dc:type
           rdf:resource="http://purl.org/dc/dcmitype/StillImage" />
        <dc:title />
      </cc:Work>
    </rdf:RDF>
  </metadata>
  <g
     inkscape:label="Layer 1"
     inkscape:groupmode="layer"
     id="layer1"
     transform="translate(-24.95791,-200.66224)">
    <g
       id="g3700"
       transform="matrix(3.247903,0,0,3.247903,-1159.1253,50.030212)"
       inkscape:export-filename="O:\Data\Logos\aztecLogo.png"
       inkscape:export-xdpi="90"
       inkscape:export-ydpi="90">
      <g
         style="font-size:216.30332947px"
         id="text11101"
         transform="translate(0,56.03616)">
        <path
           d="m 775.6694,164.47437 -77.20593,0 -12.67402,27.35477 c -1.19702,2.60522 -1.79551,4.43591 -1.79549,5.49207 -2e-5,2.11235 2.07711,3.52057 6.2314,4.22468 l 0,3.37974 -32.10753,0 0,-3.37974 c 2.88686,-0.49288 5.08721,-1.54904 6.60106,-3.16851 1.51383,-1.61945 3.50294,-5.14001 5.96735,-10.56168 L 723.49467,73.855105 c 1.26733,-2.745904 1.90103,-4.6118 1.9011,-5.597693 -7e-5,-1.830554 -1.72514,-3.203572 -5.17522,-4.119058 l 0,-3.379739 35.06479,0 0,3.379739 c -3.45024,1.12672 -5.17532,2.605354 -5.17522,4.435908 -1e-4,0.77466 0.63361,2.534939 1.9011,5.280843 L 802.6017,183.69664 c 3.73164,8.09731 6.19603,12.85006 7.39318,14.25828 1.19683,1.40823 3.80205,2.60522 7.81564,3.59097 l 0,3.37974 -34.21986,0 0,-3.37974 c 4.08372,-0.56329 6.12565,-2.11233 6.12578,-4.64714 -1.3e-4,-1.12657 -0.77466,-3.30932 -2.32357,-6.54825 z M 769.438,150.74418 737.01363,79.558416 704.69487,150.74418 Z"
           style="font-weight:normal;font-family:'Copperplate Gothic Light'"
           id="path3079"
           inkscape:connector-curvature="0" />
        <path
           d="m 927.54644,86.634745 0,1.795487 -80.26882,104.983158 68.54535,0 c 2.95717,1e-5 5.0519,-0.45766 6.2842,-1.37302 1.23209,-0.91533 2.20024,-2.74602 2.90446,-5.49207 l 2.85166,0 0,25.13681 -2.85166,0 c -0.70422,-2.67563 -1.67237,-4.47112 -2.90446,-5.38646 -1.2323,-0.91535 -3.32703,-1.37302 -6.2842,-1.37302 l -93.99901,0 0,-2.32357 81.00813,-104.455077 -67.91164,0 c -2.95729,1.07e-4 -5.03442,0.457779 -6.23139,1.373019 -1.197,0.915448 -2.14756,2.746138 -2.85166,5.492078 l -2.85165,0 0,-25.136814 2.85165,0 c 0.7041,2.67575 1.65466,4.471235 2.85166,5.38646 1.19697,0.915465 3.2741,1.373138 6.23139,1.373019 z"
           style="font-weight:normal;font-family:'Copperplate Gothic Light'"
           id="path3081"
           inkscape:connector-curvature="0" />
        <path
           d="m 1012.4624,74.488806 0,117.974034 c -10e-5,2.88687 0.4576,4.9464 1.373,6.17859 0.9153,1.2322 2.7108,2.20035 5.3865,2.90446 l 0,3.37974 -30.10083,0 0,-3.37974 c 2.67557,-0.70411 4.47106,-1.65466 5.38646,-2.85166 0.91529,-1.19698 1.37296,-3.27411 1.37302,-6.23139 l 0,-117.974034 -48.79499,0 c -2.95728,1.31e-4 -5.05201,0.440201 -6.2842,1.320211 -1.2322,0.880269 -2.16515,2.658151 -2.79885,5.333652 l -3.37974,0 0,-27.24915 3.37974,0 c 0.6337,2.746186 1.56665,4.576877 2.79885,5.492076 1.23219,0.915491 3.32692,1.373164 6.2842,1.37302 l 114.17184,0 c 2.9571,1.44e-4 5.0519,-0.457529 6.2842,-1.37302 1.2321,-0.915199 2.165,-2.74589 2.7988,-5.492076 l 3.3798,0 0,27.24915 -3.3798,0 c -0.6338,-2.675501 -1.5667,-4.453383 -2.7988,-5.333652 -1.2323,-0.88001 -3.3271,-1.32008 -6.2842,-1.320211 z"
           style="font-weight:normal;font-family:'Copperplate Gothic Light'"
           id="path3083"
           inkscape:connector-curvature="0" />
        <path
           d="m 1110.6861,149.58239 0,43.831 73.0868,0 c 2.9572,1e-5 5.0519,-0.45766 6.2842,-1.37302 1.2321,-0.91533 2.1651,-2.74602 2.7989,-5.49207 l 2.9573,0 0,25.13681 -2.9573,0 c -0.6338,-2.67563 -1.5492,-4.47112 -2.7461,-5.38646 -1.1971,-0.91535 -3.2742,-1.37302 -6.2313,-1.37302 l -95.0552,0 0,-2.85166 c 2.746,-0.70411 4.5591,-1.67226 5.4392,-2.90446 0.8802,-1.23219 1.3202,-3.29172 1.3203,-6.17859 l 0,-94.421469 c -1e-4,-2.957163 -0.4577,-5.034293 -1.3731,-6.231395 -0.9153,-1.196877 -2.7108,-2.147428 -5.3864,-2.851655 l 0,-2.851656 94.3158,0 c 2.9572,1.19e-4 5.0343,-0.457554 6.2314,-1.373019 1.1969,-0.915225 2.1475,-2.71071 2.8517,-5.38646 l 2.8516,0 0,25.136814 -2.8516,0 c -0.7042,-2.74594 -1.6548,-4.57663 -2.8517,-5.492078 -1.1971,-0.91524 -3.2742,-1.372912 -6.2314,-1.373019 l -72.4531,0 0,39.923177 46.1545,0 c 2.9572,6e-5 5.0344,-0.45761 6.2314,-1.37302 1.1969,-0.91528 2.1475,-2.71076 2.8517,-5.38646 l 2.8516,0 0,25.13681 -2.8516,0 c -0.7042,-2.74599 -1.6724,-4.57668 -2.9045,-5.49208 -1.2323,-0.91529 -3.2918,-1.37296 -6.1786,-1.37302 z"
           style="font-weight:normal;font-family:'Copperplate Gothic Light'"
           id="path3085"
           inkscape:connector-curvature="0" />
        <path
           d="m 1344.0994,95.400945 -13.2021,22.707625 -2.4292,-1.58425 c 0.4927,-1.83061 0.7392,-3.23883 0.7393,-4.22468 -10e-5,-1.47854 -1.4084,-3.1332 -4.2247,-4.96399 -11.3363,-7.32266 -24.644,-10.984045 -39.9232,-10.984154 -14.9272,1.09e-4 -27.4252,4.119164 -37.494,12.357174 -11.2658,9.22396 -16.8987,21.29947 -16.8986,36.22658 -10e-5,16.19463 6.2313,29.11508 18.6941,38.76139 9.7871,7.67484 21.4754,11.51225 35.0648,11.51224 15.3496,1e-5 28.6925,-4.4711 40.0288,-13.41334 4.4358,-3.52054 6.6538,-6.09055 6.6539,-7.71003 -10e-5,-1.19696 -0.5986,-2.99245 -1.7955,-5.38646 l 2.4292,-1.58426 16.4762,21.12337 -2.2179,1.90111 c -2.4646,-2.18273 -4.2248,-3.27411 -5.2809,-3.27412 -0.5634,1e-5 -1.4083,0.45769 -2.5348,1.37301 -8.6607,6.75949 -17.3389,11.65307 -26.0345,14.68075 -8.6959,3.02768 -18.4303,4.54152 -29.2031,4.54152 -18.7999,0 -34.2903,-5.0696 -46.4714,-15.20882 -6.1258,-5.0696 -11.0194,-11.08975 -14.6808,-18.06049 -4.6471,-8.87177 -6.9707,-18.41249 -6.9707,-28.62217 0,-19.36301 7.5692,-34.95908 22.7076,-46.788266 12.6036,-9.787046 28.4461,-14.680622 47.5276,-14.680743 16.8986,1.21e-4 33.058,4.15438 48.4782,12.462789 1.3377,0.70422 2.3586,1.056276 3.0629,1.056169 1.4785,1.07e-4 3.1331,-1.196883 4.964,-3.590973 z"
           style="font-weight:normal;font-family:'Copperplate Gothic Light'"
           id="path3087"
           inkscape:connector-curvature="0" />
      </g>
      <g
         transform="matrix(0.4299411,0,0,0.4299411,305.41419,19.932416)"
         id="g3692">
        <path
           sodipodi:nodetypes="cccc"
           id="path2309"
           d="m 137.58707,560.92434 318.1507,-499.413999 318.92447,499.413999 -637.07517,0 z"
           style="fill:#9a0000;fill-opacity:1;fill-rule:evenodd;stroke:none"
           inkscape:connector-curvature="0" />
        <path
           sodipodi:nodetypes="cccc"
           id="path2311"
           d="M 455.28303,183.1451 253.016,499.59442 657.13494,499.52837 455.28303,183.1451 Z"
           style="fill:#ffffff;fill-opacity:1;fill-rule:evenodd;stroke:none"
           inkscape:connector-curvature="0" />
        <path
           sodipodi:nodetypes="ccccc"
           id="path2315"
           d="m 453.45761,229.57517 159.87955,239.38234 -41.44172,-0.0379 -135.29347,-211.05314 16.85564,-28.29134 z"
           style="fill:url(#linearGradient3698);fill-opacity:1;fill-rule:evenodd;stroke:none"
           inkscape:connector-curvature="0" />
        <path
           sodipodi:nodetypes="cccccccc"
           id="path2325"
           d="m 305.60476,467.1059 257.39867,0 -127.9849,-202.01339 -84.98307,133.56425 70.35427,-0.13608 c 13.47351,-0.0444 13.54047,17.45384 0.27217,17.55455 l -81.24082,0 -33.81632,51.03067 z"
           style="fill:#9a0000;fill-opacity:1;fill-rule:evenodd;stroke:none"
           inkscape:connector-curvature="0" />
      </g>
    </g>
  </g>
</svg>
